<svg version="1.1" id="Layer_1" xmlns="http://www.w3.org/2000/svg" xmlns:xlink="http://www.w3.org/1999/xlink" x="0px" y="0px"
	 width="100%" viewBox="0 0 2048 2732" enable-background="new 0 0 2048 2732" xml:space="preserve">
<path fill="#000000" opacity="1.000000" stroke="none" 
	d="
M754.000000,2734.000000 
	C502.666656,2734.000000 252.333328,2734.000000 2.000000,2734.000000 
	C2.000000,1823.333374 2.000000,912.666687 2.000000,2.000000 
	C684.666687,2.000000 1367.333374,2.000000 2050.000000,2.000000 
	C2050.000000,912.666687 2050.000000,1823.333374 2050.000000,2734.000000 
	C1618.333374,2734.000000 1186.666626,2734.000000 754.000000,2734.000000 
M1287.817871,1531.577515 
	C1303.214478,1531.453979 1318.611084,1531.330444 1335.841431,1531.606934 
	C1363.324951,1531.637207 1390.808472,1531.725708 1418.291870,1531.673218 
	C1432.185913,1531.646729 1446.079346,1531.365601 1461.815674,1531.585083 
	C1489.209717,1531.456543 1516.603760,1531.328125 1545.830444,1531.611816 
	C1562.146851,1531.637451 1578.463257,1531.706177 1594.779419,1531.663574 
	C1599.916382,1531.650024 1604.914307,1532.463135 1609.552368,1528.121582 
	C1612.478638,1525.382690 1617.843750,1525.452759 1621.538818,1523.282227 
	C1626.629639,1520.291748 1631.488770,1516.720215 1635.868042,1512.757568 
	C1640.158203,1508.875854 1646.144775,1504.628052 1647.021729,1499.755249 
	C1648.251587,1492.922241 1656.898071,1491.574097 1655.981445,1484.414307 
	C1666.113525,1475.460938 1664.302368,1463.418823 1664.328979,1451.888428 
	C1664.363525,1436.904419 1664.243652,1421.920166 1664.246216,1406.936035 
	C1664.269775,1271.406738 1663.959961,1135.875244 1664.782959,1000.350708 
	C1664.883911,983.743652 1657.198364,971.139954 1649.606934,959.186707 
	C1641.077515,945.756287 1627.497559,935.601135 1611.791748,929.617249 
	C1606.722290,927.685852 1602.075562,924.529541 1596.277344,925.382385 
	C1591.812744,919.566406 1585.426147,921.794739 1579.797607,921.769653 
	C1539.838501,921.591614 1499.878174,921.607239 1459.918335,921.653564 
	C1446.611450,921.669006 1433.304688,921.955078 1418.155151,921.746704 
	C1399.437622,921.866272 1380.720093,921.985840 1360.159790,921.731934 
	C1331.668579,921.715515 1303.177246,921.650940 1274.686157,921.702515 
	C1259.791260,921.729431 1244.896484,921.960388 1228.157837,921.732178 
	C1214.771362,921.858704 1201.385010,921.985168 1186.156860,921.735046 
	C1160.101807,921.862488 1134.046631,921.989929 1106.148926,921.752686 
	C1091.264282,921.725891 1076.379517,921.633606 1061.495117,921.688477 
	C1042.325684,921.759216 1023.156799,921.947876 1002.146057,921.720459 
	C976.094055,921.852356 950.041992,921.984314 922.149963,921.740417 
	C904.281494,921.718811 886.412842,921.633179 868.544678,921.693359 
	C850.360474,921.754578 832.176758,921.959351 812.152649,921.723206 
	C786.767517,921.858093 761.382385,921.992981 734.157349,921.744568 
	C705.438110,921.867737 676.718811,921.990845 646.159973,921.725769 
	C622.771973,921.850464 599.384033,921.975159 574.157959,921.706970 
	C556.951660,921.681396 539.745056,921.575378 522.539246,921.651855 
	C503.692230,921.735596 484.846008,921.987854 464.201660,921.771667 
	C451.665283,920.227173 440.579559,924.539246 429.327026,929.441406 
	C415.940125,935.273315 402.829712,941.478455 394.533203,953.869324 
	C390.395233,960.049438 385.905670,966.078491 382.433624,972.929016 
	C378.504700,980.681030 375.520355,987.740112 375.531738,996.650818 
	C375.729950,1151.640503 375.674042,1306.630493 375.684021,1461.620483 
	C375.684387,1467.026978 376.779724,1471.797852 378.982178,1477.140503 
	C382.832428,1486.480469 389.107483,1494.049072 394.046204,1502.479858 
	C397.460724,1508.308838 402.541595,1513.279053 409.663788,1516.491943 
	C414.690155,1518.759277 419.208099,1523.331055 424.564240,1525.901367 
	C428.961456,1528.011597 433.512177,1531.368042 438.025513,1531.418335 
	C469.337494,1531.767334 500.657440,1531.396118 533.694885,1531.659912 
	C537.799622,1531.524902 541.904419,1531.389893 547.726746,1531.633423 
	C551.814636,1531.473389 555.902588,1531.313354 561.821472,1531.581787 
	C589.872925,1531.472046 617.924438,1531.362427 647.815979,1531.653320 
	C679.207703,1531.498901 710.599365,1531.344604 743.824402,1531.607056 
	C769.212891,1531.487427 794.601379,1531.367798 821.826843,1531.647339 
	C851.213257,1531.510376 880.599731,1531.373413 911.821350,1531.647095 
	C938.539490,1531.500000 965.257568,1531.352783 993.811401,1531.619629 
	C1002.081543,1531.638916 1010.351990,1531.706055 1018.621826,1531.668457 
	C1045.736938,1531.545288 1072.851807,1531.383789 1101.804321,1531.646729 
	C1114.379395,1531.662720 1126.954956,1531.742065 1139.529541,1531.681274 
	C1163.675049,1531.564453 1187.820068,1531.368286 1213.804688,1531.611572 
	C1237.862305,1531.469482 1261.920044,1531.327271 1287.817871,1531.577515 
z"/>
<path fill="#EAC55B" opacity="1.000000" stroke="none" 
	d="
M1419.997925,922.117432 
	C1433.304688,921.955078 1446.611450,921.669006 1459.918335,921.653564 
	C1499.878174,921.607239 1539.838501,921.591614 1579.797607,921.769653 
	C1585.426147,921.794739 1591.812744,919.566406 1596.277344,925.382385 
	C1602.075562,924.529541 1606.722290,927.685852 1611.791748,929.617249 
	C1627.497559,935.601135 1641.077515,945.756287 1649.606934,959.186707 
	C1657.198364,971.139954 1664.883911,983.743652 1664.782959,1000.350708 
	C1663.959961,1135.875244 1664.269775,1271.406738 1664.246216,1406.936035 
	C1664.243652,1421.920166 1664.363525,1436.904419 1664.328979,1451.888428 
	C1664.302368,1463.418823 1666.113525,1475.460938 1655.981445,1484.414307 
	C1656.898071,1491.574097 1648.251587,1492.922241 1647.021729,1499.755249 
	C1646.144775,1504.628052 1640.158203,1508.875854 1635.868042,1512.757568 
	C1631.488770,1516.720215 1626.629639,1520.291748 1621.538818,1523.282227 
	C1617.843750,1525.452759 1612.478638,1525.382690 1609.552368,1528.121582 
	C1604.914307,1532.463135 1599.916382,1531.650024 1594.779419,1531.663574 
	C1578.463257,1531.706177 1562.146851,1531.637451 1544.906372,1530.648193 
	C1542.288818,1524.421875 1541.536865,1518.573975 1538.705688,1514.018188 
	C1532.814209,1504.537720 1532.380615,1504.383179 1539.712158,1495.215698 
	C1546.604004,1486.598145 1547.062134,1473.913940 1541.449951,1467.339844 
	C1541.203613,1462.629517 1542.351562,1457.865845 1540.500854,1455.131958 
	C1537.316895,1450.428223 1538.175781,1446.560669 1539.654053,1442.013794 
	C1540.555176,1439.242798 1542.310669,1434.756714 1541.163452,1433.648438 
	C1535.399658,1428.079712 1536.833130,1419.825439 1532.702148,1413.780151 
	C1528.086304,1407.025146 1529.110107,1399.908813 1532.619141,1393.037231 
	C1534.732178,1388.899170 1537.257568,1384.973145 1539.545776,1380.922485 
	C1542.816162,1375.132812 1542.530273,1370.285522 1538.043091,1364.561157 
	C1530.940186,1355.499634 1523.983643,1345.956787 1525.856934,1333.048706 
	C1526.585693,1328.027344 1523.110718,1326.477051 1518.428589,1325.815674 
	C1512.803101,1325.020996 1511.262573,1322.238647 1512.237793,1316.788208 
	C1512.468140,1315.500610 1512.988770,1314.235352 1513.549316,1313.041260 
	C1518.444336,1302.616577 1521.026855,1291.758423 1520.040039,1280.162109 
	C1519.872314,1278.190430 1519.608643,1275.889526 1520.410156,1274.235352 
	C1522.950806,1268.990845 1520.343018,1264.557007 1518.918335,1259.849854 
	C1517.778931,1256.084717 1516.648560,1252.280518 1515.993530,1248.412476 
	C1514.391479,1238.952026 1513.122681,1229.435791 1511.611572,1219.959106 
	C1510.518311,1213.103394 1508.264404,1206.276611 1508.253784,1199.434448 
	C1508.226318,1181.526367 1501.029053,1166.277710 1490.827393,1152.619751 
	C1483.826782,1143.247437 1482.446533,1131.774658 1476.567261,1122.158691 
	C1475.495239,1120.405640 1476.151367,1117.599243 1475.999023,1115.279785 
	C1475.824951,1112.628540 1475.730225,1109.968140 1475.442017,1107.329224 
	C1474.329590,1097.140747 1472.826294,1086.981201 1472.139038,1076.765747 
	C1471.792603,1071.616333 1470.109131,1067.354370 1468.073608,1062.696655 
	C1463.171265,1051.479248 1457.185425,1039.922729 1465.367310,1027.526123 
	C1464.713623,1026.931152 1464.294678,1026.364014 1463.732788,1026.066406 
	C1455.171753,1021.533569 1450.818848,1015.295776 1453.666138,1005.016174 
	C1454.993652,1000.222839 1454.315063,995.185669 1450.643799,990.924377 
	C1448.742188,988.717285 1446.475098,985.816650 1446.443481,983.204346 
	C1446.363159,976.549133 1444.130859,971.307617 1440.253662,965.948303 
	C1435.885986,959.910950 1437.256592,955.121216 1443.225098,950.502136 
	C1444.984497,949.140381 1447.227661,948.403748 1449.249268,947.380676 
	C1444.658325,942.738770 1441.455444,941.158508 1438.495483,939.209229 
	C1431.402954,934.538452 1424.248535,929.884155 1419.997925,922.117432 
z"/>
<path fill="#F9F7EA" opacity="1.000000" stroke="none" 
	d="
M531.974854,1531.256104 
	C500.657440,1531.396118 469.337494,1531.767334 438.025513,1531.418335 
	C433.512177,1531.368042 428.961456,1528.011597 424.564240,1525.901367 
	C419.208099,1523.331055 414.690155,1518.759277 409.663788,1516.491943 
	C402.541595,1513.279053 397.460724,1508.308838 394.046204,1502.479858 
	C389.107483,1494.049072 382.832428,1486.480469 378.982178,1477.140503 
	C376.779724,1471.797852 375.684387,1467.026978 375.684021,1461.620483 
	C375.674042,1306.630493 375.729950,1151.640503 375.531738,996.650818 
	C375.520355,987.740112 378.504700,980.681030 382.433624,972.929016 
	C385.905670,966.078491 390.395233,960.049438 394.533203,953.869324 
	C402.829712,941.478455 415.940125,935.273315 429.327026,929.441406 
	C440.579559,924.539246 451.665283,920.227173 465.080719,922.744690 
	C462.850800,930.736145 460.187592,937.689575 463.319244,945.621521 
	C463.922577,947.149719 462.490570,950.180420 461.086121,951.642639 
	C458.835968,953.985596 455.823578,955.596252 453.134613,957.518250 
	C447.170868,961.781006 446.617981,966.685852 452.195129,974.380188 
	C455.771454,971.616577 459.590912,969.151001 462.801208,966.054016 
	C466.346466,962.633911 468.974121,962.293213 474.053650,964.194458 
	C480.302521,966.533325 484.708527,970.272705 489.196808,974.600769 
	C495.367249,980.550781 495.478333,982.971436 488.487122,987.647949 
	C483.205139,991.181213 477.880035,994.351624 475.392090,1000.744385 
	C474.766907,1002.350830 472.588654,1003.447937 470.970673,1004.554749 
	C466.585785,1007.554382 464.815399,1011.349792 466.887024,1016.597961 
	C470.981384,1019.176086 475.006683,1020.344604 479.997437,1018.484863 
	C483.897369,1017.031494 488.901917,1017.906250 492.282349,1015.867554 
	C495.929169,1013.668152 498.257599,1009.282776 501.113708,1005.907043 
	C509.902985,1012.784241 510.046997,1014.693542 503.135406,1019.885559 
	C502.337372,1020.484985 501.576477,1021.181335 500.690369,1021.608887 
	C491.929626,1025.835938 492.676361,1034.747070 490.873047,1042.230469 
	C490.520782,1043.692383 492.745575,1046.895752 494.441376,1047.528809 
	C500.457672,1049.774658 500.343567,1053.557007 498.870697,1058.727783 
	C497.514038,1063.490479 496.341736,1068.940186 500.268860,1072.954834 
	C505.481567,1078.283813 503.595886,1082.437622 500.301605,1087.926636 
	C496.247375,1094.681763 493.163086,1102.147705 490.588654,1109.626221 
	C487.977112,1117.212646 493.001831,1122.550049 501.223663,1121.788208 
	C503.425812,1121.583984 505.605072,1121.133423 507.419434,1120.853882 
	C508.322052,1121.948975 509.024506,1122.411865 509.116852,1122.974854 
	C509.857452,1127.489746 510.482819,1132.023315 511.157349,1136.646851 
	C510.092102,1137.208618 509.256378,1137.703247 508.378021,1138.104492 
	C497.897980,1142.892334 496.951660,1144.686279 498.841095,1155.656372 
	C499.167786,1157.553223 499.732910,1159.790894 499.064392,1161.406128 
	C497.000275,1166.392944 498.312988,1169.700073 503.504517,1171.351318 
	C502.922119,1172.868286 502.626740,1173.781006 502.230408,1174.647461 
	C498.808167,1182.128906 500.121277,1184.607178 508.280090,1185.937866 
	C510.492859,1186.298706 512.721191,1186.564087 515.326965,1186.926880 
	C512.726440,1195.225342 518.033936,1203.830566 512.304626,1211.250610 
	C501.137970,1214.436401 500.104492,1215.752441 500.007599,1227.092651 
	C499.981995,1230.090454 499.645538,1233.164185 500.188416,1236.065308 
	C500.684906,1238.718994 502.177185,1241.186279 503.302856,1243.910522 
	C507.168365,1241.576660 509.889984,1239.933472 513.083252,1238.005493 
	C517.787842,1245.360474 516.143921,1252.234253 514.764832,1260.038086 
	C512.591675,1259.277710 510.555725,1259.199829 509.841003,1258.188232 
	C508.151306,1255.796631 507.118256,1252.946411 505.767700,1250.308350 
	C503.547241,1245.970703 495.409363,1242.935669 492.275055,1245.244873 
	C489.145813,1247.550415 489.483765,1252.921997 492.762695,1257.784302 
	C496.739136,1263.680908 501.254639,1268.906738 508.294739,1271.123901 
	C515.327271,1273.338745 518.751343,1278.690186 521.530273,1285.016846 
	C522.775757,1287.852417 524.986206,1290.390381 527.181580,1292.653320 
	C530.654846,1296.233521 533.115540,1300.161865 531.233582,1305.121460 
	C529.267090,1310.303711 530.473999,1314.717651 532.577148,1319.490479 
	C534.831665,1324.606567 532.438599,1328.588623 526.995667,1329.771606 
	C525.394287,1330.119629 523.664673,1330.118286 522.019043,1329.978760 
	C516.045471,1329.472656 513.462036,1333.268066 512.442383,1338.120972 
	C511.702179,1341.644043 512.043457,1345.411987 512.053467,1349.070435 
	C512.066040,1353.643188 514.483459,1356.349243 518.758362,1357.872314 
	C521.459534,1358.834351 524.599426,1359.829956 526.393555,1361.837402 
	C531.888550,1367.985840 536.779297,1374.670776 542.007019,1381.063599 
	C544.303650,1383.872070 544.647461,1386.961670 541.785034,1388.955322 
	C534.260986,1394.195557 529.240784,1401.477539 524.100586,1408.764404 
	C523.201477,1410.038940 521.551941,1410.861816 520.123657,1411.672607 
	C512.338318,1416.092407 511.816376,1419.232056 518.741699,1424.293579 
	C524.447998,1428.463989 528.030701,1433.985596 529.606140,1440.526611 
	C530.625000,1444.756592 532.417480,1447.593262 535.925781,1450.072510 
	C542.995361,1455.068481 543.422485,1456.158569 539.815308,1464.080078 
	C537.351379,1469.490967 537.969543,1473.449097 542.291687,1477.413086 
	C545.445740,1480.305664 548.194519,1483.708252 547.403992,1488.391846 
	C544.849243,1489.944458 542.586060,1491.273438 540.371094,1492.678589 
	C537.855652,1494.274414 535.488525,1496.134399 532.873718,1497.538208 
	C522.333313,1503.196289 521.901184,1505.016235 527.069885,1516.349365 
	C529.227356,1521.080078 530.370544,1526.273193 531.974854,1531.256104 
z"/>
<path fill="#ECCC6C" opacity="1.000000" stroke="none" 
	d="
M1459.973145,1531.199463 
	C1446.079346,1531.365601 1432.185913,1531.646729 1418.291870,1531.673218 
	C1390.808472,1531.725708 1363.324951,1531.637207 1334.944092,1530.670532 
	C1336.452393,1523.797363 1336.112915,1518.193481 1332.416382,1512.773438 
	C1329.677002,1508.756836 1329.885498,1505.282959 1333.525513,1501.258789 
	C1341.588867,1492.344360 1341.471313,1488.289673 1335.179321,1478.479248 
	C1332.533936,1474.354614 1328.759644,1470.031860 1328.394043,1465.562378 
	C1327.672607,1456.739136 1328.870483,1447.744263 1329.461914,1438.832764 
	C1329.984619,1430.957031 1331.336548,1423.090332 1331.230469,1415.234497 
	C1331.156128,1409.709351 1328.517456,1404.235840 1328.313477,1398.691895 
	C1327.866577,1386.549438 1327.610962,1374.326782 1328.571045,1362.239746 
	C1328.985596,1357.020264 1328.953491,1351.980469 1326.630615,1347.882935 
	C1322.273193,1340.196655 1322.317139,1332.155151 1321.761230,1323.835815 
	C1321.404053,1318.491211 1319.659180,1312.686035 1316.785522,1308.211792 
	C1313.648804,1303.327881 1311.868164,1299.107056 1314.059448,1293.561279 
	C1317.554199,1284.716309 1316.664429,1275.608643 1313.175537,1267.315186 
	C1310.319702,1260.526367 1310.289429,1253.853394 1309.917236,1246.902344 
	C1309.422974,1237.673706 1310.092163,1227.841919 1307.085815,1219.400269 
	C1300.729004,1201.549561 1296.923584,1183.069946 1291.449219,1165.031372 
	C1288.178223,1154.252808 1285.980957,1143.091187 1279.240356,1133.638916 
	C1278.359131,1132.403198 1278.027100,1130.484619 1278.096069,1128.911011 
	C1278.486816,1119.993042 1279.322144,1111.088013 1279.483398,1102.169312 
	C1279.551758,1098.395752 1279.455688,1093.830444 1277.480713,1090.976929 
	C1273.670410,1085.471558 1272.083862,1079.809692 1271.948364,1073.321045 
	C1271.801270,1066.273804 1270.243652,1059.539917 1265.870972,1053.746948 
	C1261.703369,1048.225708 1260.081787,1041.790405 1260.093506,1035.101196 
	C1260.114502,1023.146118 1261.333374,1011.041626 1252.651245,1001.024658 
	C1252.447144,1000.789124 1252.371094,1000.420776 1252.293945,1000.100220 
	C1250.835449,994.044312 1250.269531,987.586792 1247.749268,982.012451 
	C1242.571167,970.558960 1242.641846,958.185852 1239.963867,946.322571 
	C1239.499390,944.264648 1238.261963,941.864441 1236.619385,940.674500 
	C1227.166016,933.826782 1226.960449,933.581177 1230.001709,922.099121 
	C1244.896484,921.960388 1259.791260,921.729431 1274.686157,921.702515 
	C1303.177246,921.650940 1331.668579,921.715515 1361.080078,922.758789 
	C1361.103516,930.716248 1365.995728,938.081299 1360.346069,944.735901 
	C1359.730103,945.461365 1359.991699,947.518921 1360.563110,948.567932 
	C1363.739380,954.398315 1365.010132,960.243774 1362.431030,966.728149 
	C1362.000610,967.810364 1363.474854,969.697083 1364.161255,971.168945 
	C1368.609741,980.705261 1373.285156,990.144165 1377.394287,999.823669 
	C1378.314575,1001.991760 1377.805054,1005.157593 1377.032349,1007.568787 
	C1375.611206,1012.003540 1376.179321,1015.894592 1377.955688,1020.107117 
	C1382.072632,1029.870483 1386.078247,1039.703125 1389.549316,1049.708618 
	C1391.770508,1056.111206 1395.455200,1062.505371 1392.197144,1069.824707 
	C1391.608398,1071.147217 1392.183472,1073.128418 1392.571045,1074.720459 
	C1394.405273,1082.254150 1393.667358,1090.597412 1400.115234,1096.709839 
	C1401.533325,1098.054199 1401.879517,1101.031006 1401.895386,1103.261841 
	C1401.949341,1110.850220 1404.260010,1117.523804 1408.469604,1123.812134 
	C1410.253662,1126.477173 1411.463623,1129.780273 1412.037354,1132.955566 
	C1413.982910,1143.724976 1416.382324,1154.166870 1421.528564,1164.093872 
	C1425.236450,1171.246338 1425.794678,1179.674927 1422.164673,1187.284790 
	C1419.236694,1193.423462 1419.960571,1198.677124 1423.096191,1204.303589 
	C1427.334839,1211.909058 1430.463989,1219.791748 1430.249146,1228.894287 
	C1430.171143,1232.196777 1431.930298,1236.195557 1434.141846,1238.766602 
	C1439.141357,1244.579346 1440.567627,1250.172729 1438.725464,1257.966431 
	C1437.178833,1264.510132 1435.057495,1272.740845 1443.801880,1277.454834 
	C1444.940552,1278.068726 1445.775391,1280.276978 1445.793701,1281.758545 
	C1445.871338,1288.066650 1445.526245,1294.378540 1445.455811,1300.690430 
	C1445.386719,1306.883301 1444.727051,1313.188843 1445.641846,1319.246460 
	C1447.145630,1329.204712 1451.303711,1338.854736 1446.365112,1349.096680 
	C1445.472778,1350.947388 1446.479492,1354.606079 1447.870483,1356.508301 
	C1453.310425,1363.947876 1453.130371,1371.199341 1448.593750,1378.852173 
	C1445.480835,1384.103516 1445.037720,1389.082764 1448.901489,1394.643799 
	C1450.994629,1397.656372 1451.103760,1402.079834 1451.981567,1405.895874 
	C1453.081055,1410.675903 1453.791992,1415.560669 1455.151001,1420.261353 
	C1456.444092,1424.734863 1456.551636,1428.696655 1455.765503,1433.562622 
	C1454.269653,1442.821899 1453.433960,1453.011108 1455.817261,1461.875000 
	C1459.157471,1474.297974 1458.877441,1487.064819 1461.939697,1499.369019 
	C1462.016724,1499.678833 1462.001343,1500.059814 1461.895142,1500.360352 
	C1460.058228,1505.561890 1459.467896,1510.353638 1463.119629,1515.440674 
	C1464.415283,1517.246094 1463.218872,1521.101074 1462.640137,1523.913330 
	C1462.124268,1526.418823 1460.890259,1528.776611 1459.973145,1531.199463 
z"/>
<path fill="#EDD893" opacity="1.000000" stroke="none" 
	d="
M1211.965332,1531.205078 
	C1187.820068,1531.368286 1163.675049,1531.564453 1139.529541,1531.681274 
	C1126.954956,1531.742065 1114.379395,1531.662720 1100.910400,1530.689819 
	C1101.698608,1524.935303 1101.893066,1520.376343 1100.418701,1515.216187 
	C1098.716431,1509.258667 1098.568970,1502.823730 1098.036377,1496.571533 
	C1096.632080,1480.089233 1096.165161,1463.471313 1090.198242,1447.721680 
	C1087.652222,1441.001343 1087.921143,1434.317993 1089.001831,1427.185181 
	C1090.126343,1419.761475 1090.305420,1411.802612 1088.856445,1404.481689 
	C1087.101685,1395.616821 1086.316895,1386.854980 1085.799194,1377.881348 
	C1085.212280,1367.704468 1082.933472,1357.633789 1081.630005,1347.486206 
	C1080.874512,1341.602905 1078.920532,1335.184326 1080.438843,1329.839966 
	C1083.719971,1318.289307 1079.570923,1308.558594 1074.371094,1299.540894 
	C1070.006226,1291.971436 1070.076172,1284.583618 1070.128296,1276.617920 
	C1070.180420,1268.604004 1071.126099,1260.061035 1068.728027,1252.713501 
	C1066.240112,1245.090454 1065.424805,1237.680420 1066.195068,1230.215332 
	C1067.444946,1218.099854 1063.395264,1207.664429 1056.775513,1198.425049 
	C1050.752808,1190.018921 1052.562378,1179.778687 1048.376953,1171.138184 
	C1048.034912,1170.432129 1048.527222,1169.147217 1048.941772,1168.279175 
	C1050.919434,1164.138428 1049.056641,1160.632080 1047.546753,1156.863892 
	C1042.819336,1145.066406 1039.647583,1132.600220 1040.463989,1120.062622 
	C1040.998291,1111.855103 1038.766357,1105.334595 1035.660522,1098.388184 
	C1033.951172,1094.564941 1032.809448,1090.384033 1032.083374,1086.246582 
	C1030.602905,1077.810547 1030.823730,1068.848267 1027.992798,1060.944946 
	C1025.460449,1053.874878 1023.736450,1047.168213 1023.955688,1039.732178 
	C1024.346680,1026.474487 1020.560303,1013.904968 1014.590271,1002.480957 
	C1011.129456,995.858582 1009.621887,989.641846 1010.021179,982.583374 
	C1010.385132,976.150635 1008.419128,970.406494 1006.487671,964.289368 
	C1002.175049,950.630981 996.859253,936.593811 1003.987610,922.085693 
	C1023.156799,921.947876 1042.325684,921.759216 1061.495117,921.688477 
	C1076.379517,921.633606 1091.264282,921.725891 1107.186523,922.730103 
	C1108.741699,925.286682 1109.427734,926.832092 1109.750732,928.449951 
	C1113.242188,945.938965 1115.839600,963.664612 1120.462524,980.846252 
	C1122.948608,990.086060 1125.853516,999.148010 1127.327637,1008.659729 
	C1128.483521,1016.116577 1130.946411,1023.387634 1131.868774,1030.859741 
	C1133.190308,1041.565063 1135.207642,1051.704468 1142.813477,1060.070435 
	C1144.617310,1062.054688 1145.468506,1065.276123 1145.911133,1068.062988 
	C1147.932129,1080.789673 1150.627930,1093.359375 1150.407104,1106.472046 
	C1150.258911,1115.263550 1152.576660,1124.139648 1154.172241,1132.908447 
	C1157.058716,1148.774170 1166.413940,1162.896851 1166.869629,1179.451782 
	C1166.886475,1180.064209 1167.569336,1180.643921 1167.637573,1181.271973 
	C1167.945068,1184.101074 1168.197998,1186.938721 1168.362183,1189.779541 
	C1168.495239,1192.081299 1168.069702,1194.487427 1168.588501,1196.682739 
	C1171.557617,1209.246216 1175.427979,1221.641724 1174.118774,1234.850586 
	C1173.934326,1236.712036 1174.613037,1238.837891 1175.431030,1240.589478 
	C1179.330322,1248.938477 1177.178589,1259.190552 1183.704224,1266.726196 
	C1184.228638,1267.331909 1183.804199,1268.686890 1184.006958,1269.654663 
	C1186.219482,1280.213989 1182.843506,1291.371948 1187.458740,1301.706299 
	C1187.922241,1302.744385 1187.218140,1304.273682 1187.160278,1305.579712 
	C1186.816284,1313.350342 1186.472412,1321.121582 1186.219360,1328.895508 
	C1186.188477,1329.844482 1186.681519,1330.817139 1186.965454,1331.768799 
	C1189.231689,1339.365356 1191.615845,1346.928711 1193.749756,1354.562256 
	C1196.413086,1364.089111 1198.995605,1373.643311 1201.323975,1383.255737 
	C1201.835693,1385.367920 1201.637939,1387.953613 1200.907593,1390.017212 
	C1195.452393,1405.431641 1199.624878,1420.892456 1200.476562,1436.324341 
	C1200.712402,1440.595947 1201.266968,1444.878052 1202.051270,1449.085327 
	C1203.793823,1458.433472 1203.107422,1468.289429 1208.352417,1476.919678 
	C1212.250122,1483.332764 1212.130249,1490.065674 1208.608398,1496.735352 
	C1206.722778,1500.306274 1205.654785,1503.728394 1206.933228,1508.114746 
	C1209.132080,1515.659546 1210.340942,1523.492920 1211.965332,1531.205078 
z"/>
<path fill="#F6F3E1" opacity="1.000000" stroke="none" 
	d="
M532.834839,1531.458008 
	C530.370544,1526.273193 529.227356,1521.080078 527.069885,1516.349365 
	C521.901184,1505.016235 522.333313,1503.196289 532.873718,1497.538208 
	C535.488525,1496.134399 537.855652,1494.274414 540.371094,1492.678589 
	C542.586060,1491.273438 544.849243,1489.944458 547.403992,1488.391846 
	C548.194519,1483.708252 545.445740,1480.305664 542.291687,1477.413086 
	C537.969543,1473.449097 537.351379,1469.490967 539.815308,1464.080078 
	C543.422485,1456.158569 542.995361,1455.068481 535.925781,1450.072510 
	C532.417480,1447.593262 530.625000,1444.756592 529.606140,1440.526611 
	C528.030701,1433.985596 524.447998,1428.463989 518.741699,1424.293579 
	C511.816376,1419.232056 512.338318,1416.092407 520.123657,1411.672607 
	C521.551941,1410.861816 523.201477,1410.038940 524.100586,1408.764404 
	C529.240784,1401.477539 534.260986,1394.195557 541.785034,1388.955322 
	C544.647461,1386.961670 544.303650,1383.872070 542.007019,1381.063599 
	C536.779297,1374.670776 531.888550,1367.985840 526.393555,1361.837402 
	C524.599426,1359.829956 521.459534,1358.834351 518.758362,1357.872314 
	C514.483459,1356.349243 512.066040,1353.643188 512.053467,1349.070435 
	C512.043457,1345.411987 511.702179,1341.644043 512.442383,1338.120972 
	C513.462036,1333.268066 516.045471,1329.472656 522.019043,1329.978760 
	C523.664673,1330.118286 525.394287,1330.119629 526.995667,1329.771606 
	C532.438599,1328.588623 534.831665,1324.606567 532.577148,1319.490479 
	C530.473999,1314.717651 529.267090,1310.303711 531.233582,1305.121460 
	C533.115540,1300.161865 530.654846,1296.233521 527.181580,1292.653320 
	C524.986206,1290.390381 522.775757,1287.852417 521.530273,1285.016846 
	C518.751343,1278.690186 515.327271,1273.338745 508.294739,1271.123901 
	C501.254639,1268.906738 496.739136,1263.680908 492.762695,1257.784302 
	C489.483765,1252.921997 489.145813,1247.550415 492.275055,1245.244873 
	C495.409363,1242.935669 503.547241,1245.970703 505.767700,1250.308350 
	C507.118256,1252.946411 508.151306,1255.796631 509.841003,1258.188232 
	C510.555725,1259.199829 512.591675,1259.277710 514.764832,1260.038086 
	C516.143921,1252.234253 517.787842,1245.360474 513.083252,1238.005493 
	C509.889984,1239.933472 507.168365,1241.576660 503.302856,1243.910522 
	C502.177185,1241.186279 500.684906,1238.718994 500.188416,1236.065308 
	C499.645538,1233.164185 499.981995,1230.090454 500.007599,1227.092651 
	C500.104492,1215.752441 501.137970,1214.436401 512.304626,1211.250610 
	C518.033936,1203.830566 512.726440,1195.225342 515.326965,1186.926880 
	C512.721191,1186.564087 510.492859,1186.298706 508.280090,1185.937866 
	C500.121277,1184.607178 498.808167,1182.128906 502.230408,1174.647461 
	C502.626740,1173.781006 502.922119,1172.868286 503.504517,1171.351318 
	C498.312988,1169.700073 497.000275,1166.392944 499.064392,1161.406128 
	C499.732910,1159.790894 499.167786,1157.553223 498.841095,1155.656372 
	C496.951660,1144.686279 497.897980,1142.892334 508.378021,1138.104492 
	C509.256378,1137.703247 510.092102,1137.208618 511.157349,1136.646851 
	C510.482819,1132.023315 509.857452,1127.489746 509.116852,1122.974854 
	C509.024506,1122.411865 508.322052,1121.948975 507.419434,1120.853882 
	C505.605072,1121.133423 503.425812,1121.583984 501.223663,1121.788208 
	C493.001831,1122.550049 487.977112,1117.212646 490.588654,1109.626221 
	C493.163086,1102.147705 496.247375,1094.681763 500.301605,1087.926636 
	C503.595886,1082.437622 505.481567,1078.283813 500.268860,1072.954834 
	C496.341736,1068.940186 497.514038,1063.490479 498.870697,1058.727783 
	C500.343567,1053.557007 500.457672,1049.774658 494.441376,1047.528809 
	C492.745575,1046.895752 490.520782,1043.692383 490.873047,1042.230469 
	C492.676361,1034.747070 491.929626,1025.835938 500.690369,1021.608887 
	C501.576477,1021.181335 502.337372,1020.484985 503.135406,1019.885559 
	C510.046997,1014.693542 509.902985,1012.784241 501.113708,1005.907043 
	C498.257599,1009.282776 495.929169,1013.668152 492.282349,1015.867554 
	C488.901917,1017.906250 483.897369,1017.031494 479.997437,1018.484863 
	C475.006683,1020.344604 470.981384,1019.176086 466.887024,1016.597961 
	C464.815399,1011.349792 466.585785,1007.554382 470.970673,1004.554749 
	C472.588654,1003.447937 474.766907,1002.350830 475.392090,1000.744385 
	C477.880035,994.351624 483.205139,991.181213 488.487122,987.647949 
	C495.478333,982.971436 495.367249,980.550781 489.196808,974.600769 
	C484.708527,970.272705 480.302521,966.533325 474.053650,964.194458 
	C468.974121,962.293213 466.346466,962.633911 462.801208,966.054016 
	C459.590912,969.151001 455.771454,971.616577 452.195129,974.380188 
	C446.617981,966.685852 447.170868,961.781006 453.134613,957.518250 
	C455.823578,955.596252 458.835968,953.985596 461.086121,951.642639 
	C462.490570,950.180420 463.922577,947.149719 463.319244,945.621521 
	C460.187592,937.689575 462.850800,930.736145 465.979614,922.942139 
	C484.846008,921.987854 503.692230,921.735596 522.539246,921.651855 
	C539.745056,921.575378 556.951660,921.681396 575.059692,922.693481 
	C575.413452,927.847229 574.139465,931.680176 575.410767,936.293335 
	C576.672852,940.873230 575.562500,946.146790 575.271301,951.103149 
	C575.000366,955.716248 574.408386,960.309509 574.011902,964.916199 
	C573.593201,969.781433 575.257019,972.619629 580.353271,974.578064 
	C590.681519,978.547058 594.222778,986.298279 591.243958,996.974426 
	C589.915222,1001.736450 587.744568,1006.307312 585.565308,1010.774292 
	C583.877808,1014.233154 584.328247,1016.749512 586.674255,1019.841492 
	C589.540955,1023.619812 591.534668,1028.060547 594.349304,1032.991699 
	C602.223389,1035.075073 606.817749,1040.779419 605.710754,1049.112427 
	C604.999512,1054.466553 602.406921,1058.952148 598.333435,1062.847656 
	C593.053955,1067.896484 592.818359,1070.420776 596.052551,1075.951538 
	C600.457825,1083.484741 605.100098,1090.879272 610.090332,1099.071289 
	C599.323608,1106.453003 598.665344,1117.153198 600.518372,1128.494507 
	C602.754028,1142.177368 605.178162,1155.829468 607.485779,1169.500732 
	C607.648254,1170.463135 607.885193,1171.670776 607.472839,1172.431030 
	C604.509949,1177.893311 607.335327,1182.732666 610.394897,1186.220459 
	C617.245117,1194.029053 615.804749,1201.146484 610.645386,1208.700439 
	C609.897949,1209.794800 609.327637,1211.009888 608.669189,1212.165649 
	C602.777466,1222.505981 605.134216,1231.245361 615.262024,1236.621216 
	C616.731445,1237.401123 618.287537,1238.061279 619.640991,1239.009033 
	C630.973694,1246.943237 630.673950,1253.453125 618.690308,1260.627930 
	C618.119690,1260.969727 617.536194,1261.302002 616.927002,1261.565308 
	C612.450562,1263.499756 611.898926,1266.716553 612.605774,1271.338379 
	C614.491760,1283.669312 618.163940,1294.561768 630.802185,1299.936890 
	C631.379761,1300.182495 631.718872,1300.985718 632.296082,1301.235229 
	C638.578979,1303.948853 640.959412,1309.518188 641.322510,1315.542847 
	C641.670532,1321.318481 641.292664,1327.395508 639.825500,1332.969482 
	C636.666382,1344.971558 633.708130,1356.631348 640.149170,1368.565552 
	C642.760803,1373.404419 644.391235,1378.772827 646.570679,1384.153320 
	C637.204712,1388.184082 638.215149,1401.335327 625.160522,1401.159424 
	C628.019409,1403.533813 629.194519,1404.599121 630.462830,1405.538330 
	C631.794495,1406.524658 633.300354,1407.285278 634.584351,1408.324585 
	C648.819946,1419.846680 649.282776,1424.892456 643.787415,1444.004150 
	C640.321167,1456.059082 646.776550,1465.580444 649.628540,1476.062378 
	C649.960571,1477.282959 652.206970,1477.989990 653.576843,1478.919067 
	C655.501038,1480.224121 657.449280,1481.494141 659.362671,1482.814941 
	C663.033386,1485.348877 664.193420,1488.176270 662.807739,1492.992920 
	C660.426941,1501.268555 654.920410,1506.649902 648.623230,1511.685547 
	C646.388855,1513.472168 644.209473,1515.327515 642.742310,1516.541504 
	C644.011353,1522.315063 644.993591,1526.783936 645.975891,1531.252808 
	C617.924438,1531.362427 589.872925,1531.472046 560.900146,1530.565308 
	C559.973389,1527.252197 560.038574,1524.952759 559.947632,1522.659546 
	C559.770508,1518.194824 557.616943,1515.064331 553.117188,1514.371948 
	C549.864563,1513.871460 546.511414,1517.822510 546.095276,1522.400757 
	C545.828979,1525.330566 546.022034,1528.302124 546.009155,1531.254883 
	C541.904419,1531.389893 537.799622,1531.524902 532.834839,1531.458008 
M504.256531,942.825623 
	C501.620148,941.993042 498.878815,940.245850 496.371033,940.533630 
	C492.190308,941.013367 490.295197,947.424316 493.677094,949.764099 
	C496.068054,951.418457 499.967010,951.994202 502.915955,951.476074 
	C507.066071,950.746887 505.982239,947.179932 504.256531,942.825623 
z"/>
<path fill="#EFDFA9" opacity="1.000000" stroke="none" 
	d="
M1003.066833,921.903076 
	C996.859253,936.593811 1002.175049,950.630981 1006.487671,964.289368 
	C1008.419128,970.406494 1010.385132,976.150635 1010.021179,982.583374 
	C1009.621887,989.641846 1011.129456,995.858582 1014.590271,1002.480957 
	C1020.560303,1013.904968 1024.346680,1026.474487 1023.955688,1039.732178 
	C1023.736450,1047.168213 1025.460449,1053.874878 1027.992798,1060.944946 
	C1030.823730,1068.848267 1030.602905,1077.810547 1032.083374,1086.246582 
	C1032.809448,1090.384033 1033.951172,1094.564941 1035.660522,1098.388184 
	C1038.766357,1105.334595 1040.998291,1111.855103 1040.463989,1120.062622 
	C1039.647583,1132.600220 1042.819336,1145.066406 1047.546753,1156.863892 
	C1049.056641,1160.632080 1050.919434,1164.138428 1048.941772,1168.279175 
	C1048.527222,1169.147217 1048.034912,1170.432129 1048.376953,1171.138184 
	C1052.562378,1179.778687 1050.752808,1190.018921 1056.775513,1198.425049 
	C1063.395264,1207.664429 1067.444946,1218.099854 1066.195068,1230.215332 
	C1065.424805,1237.680420 1066.240112,1245.090454 1068.728027,1252.713501 
	C1071.126099,1260.061035 1070.180420,1268.604004 1070.128296,1276.617920 
	C1070.076172,1284.583618 1070.006226,1291.971436 1074.371094,1299.540894 
	C1079.570923,1308.558594 1083.719971,1318.289307 1080.438843,1329.839966 
	C1078.920532,1335.184326 1080.874512,1341.602905 1081.630005,1347.486206 
	C1082.933472,1357.633789 1085.212280,1367.704468 1085.799194,1377.881348 
	C1086.316895,1386.854980 1087.101685,1395.616821 1088.856445,1404.481689 
	C1090.305420,1411.802612 1090.126343,1419.761475 1089.001831,1427.185181 
	C1087.921143,1434.317993 1087.652222,1441.001343 1090.198242,1447.721680 
	C1096.165161,1463.471313 1096.632080,1480.089233 1098.036377,1496.571533 
	C1098.568970,1502.823730 1098.716431,1509.258667 1100.418701,1515.216187 
	C1101.893066,1520.376343 1101.698608,1524.935303 1099.991699,1530.484985 
	C1072.851807,1531.383789 1045.736938,1531.545288 1018.621826,1531.668457 
	C1010.351990,1531.706055 1002.081543,1531.638916 992.892090,1530.683594 
	C993.425110,1524.128540 993.036926,1519.024780 990.054504,1513.636597 
	C986.690125,1507.558105 986.532410,1501.186401 991.592529,1495.111206 
	C995.565674,1490.341064 995.379883,1484.333618 992.005798,1479.332153 
	C989.105225,1475.032471 985.297668,1471.206421 981.362061,1467.778442 
	C976.549988,1463.587280 973.445251,1459.724854 975.278442,1452.451050 
	C977.426331,1443.928955 978.998535,1435.057739 974.649963,1426.274414 
	C973.305054,1423.557861 973.663574,1419.646240 974.178772,1416.432007 
	C975.328979,1409.256714 977.254150,1402.208130 978.501587,1395.044922 
	C979.290222,1390.516479 980.985657,1385.311279 979.568909,1381.386353 
	C974.929626,1368.533569 978.428467,1355.234619 976.233093,1342.289429 
	C975.317749,1336.891846 974.806091,1331.853516 970.821594,1327.779297 
	C966.762695,1323.628906 965.572693,1319.107910 967.635498,1313.254639 
	C969.130066,1309.013916 969.858765,1304.101929 969.375183,1299.658325 
	C968.635620,1292.861816 966.556519,1286.211060 965.306458,1280.656006 
	C969.075134,1277.237915 972.465210,1274.344360 975.645508,1271.236084 
	C980.374207,1266.614868 975.516113,1262.716431 974.550903,1258.499023 
	C974.111450,1256.578857 974.285095,1254.526367 973.965027,1252.569092 
	C973.541687,1249.979614 973.702698,1246.764648 972.218140,1244.975586 
	C967.187195,1238.912354 968.056458,1231.934082 967.982788,1225.001831 
	C967.943909,1221.343994 967.759705,1217.687500 967.630615,1214.030762 
	C967.269165,1203.795532 966.338501,1193.533691 966.822205,1183.338867 
	C967.009033,1179.401123 966.121643,1177.322754 963.609924,1174.818481 
	C960.853333,1172.070190 956.865845,1168.847290 956.655029,1165.619629 
	C956.247498,1159.381470 952.821655,1156.340088 948.951843,1154.365112 
	C949.773926,1136.453491 951.284851,1119.526001 934.931763,1107.857910 
	C933.059692,1106.522095 931.696716,1104.495483 929.939819,1102.971069 
	C925.805115,1099.383667 925.158020,1095.416748 927.708130,1090.518677 
	C931.696045,1082.858765 935.155273,1075.050537 941.803101,1068.968140 
	C948.045410,1063.256836 946.810425,1059.202271 938.754761,1055.968628 
	C936.598999,1055.103271 934.262695,1054.666626 932.149414,1053.720093 
	C925.683716,1050.824585 923.646667,1045.175293 926.280396,1038.507324 
	C926.963318,1036.778198 927.675049,1034.588745 927.192749,1032.960327 
	C925.793396,1028.235718 924.083008,1023.551697 921.968689,1019.101624 
	C917.985718,1010.718323 913.741882,1002.452942 909.383545,994.257080 
	C907.634827,990.968445 908.132446,988.589294 911.078979,986.554382 
	C912.993347,985.232239 914.891479,983.880005 916.867249,982.654541 
	C924.165222,978.128235 928.339661,971.970459 928.104858,963.014160 
	C928.029541,960.142212 928.602905,956.892273 929.975647,954.425232 
	C932.221069,950.389954 931.308289,946.890076 930.050720,942.977356 
	C927.835999,936.086182 925.990234,929.076416 923.989990,922.116272 
	C950.041992,921.984314 976.094055,921.852356 1003.066833,921.903076 
z"/>
<path fill="#F0E5B9" opacity="1.000000" stroke="none" 
	d="
M923.069946,921.928345 
	C925.990234,929.076416 927.835999,936.086182 930.050720,942.977356 
	C931.308289,946.890076 932.221069,950.389954 929.975647,954.425232 
	C928.602905,956.892273 928.029541,960.142212 928.104858,963.014160 
	C928.339661,971.970459 924.165222,978.128235 916.867249,982.654541 
	C914.891479,983.880005 912.993347,985.232239 911.078979,986.554382 
	C908.132446,988.589294 907.634827,990.968445 909.383545,994.257080 
	C913.741882,1002.452942 917.985718,1010.718323 921.968689,1019.101624 
	C924.083008,1023.551697 925.793396,1028.235718 927.192749,1032.960327 
	C927.675049,1034.588745 926.963318,1036.778198 926.280396,1038.507324 
	C923.646667,1045.175293 925.683716,1050.824585 932.149414,1053.720093 
	C934.262695,1054.666626 936.598999,1055.103271 938.754761,1055.968628 
	C946.810425,1059.202271 948.045410,1063.256836 941.803101,1068.968140 
	C935.155273,1075.050537 931.696045,1082.858765 927.708130,1090.518677 
	C925.158020,1095.416748 925.805115,1099.383667 929.939819,1102.971069 
	C931.696716,1104.495483 933.059692,1106.522095 934.931763,1107.857910 
	C951.284851,1119.526001 949.773926,1136.453491 948.951843,1154.365112 
	C952.821655,1156.340088 956.247498,1159.381470 956.655029,1165.619629 
	C956.865845,1168.847290 960.853333,1172.070190 963.609924,1174.818481 
	C966.121643,1177.322754 967.009033,1179.401123 966.822205,1183.338867 
	C966.338501,1193.533691 967.269165,1203.795532 967.630615,1214.030762 
	C967.759705,1217.687500 967.943909,1221.343994 967.982788,1225.001831 
	C968.056458,1231.934082 967.187195,1238.912354 972.218140,1244.975586 
	C973.702698,1246.764648 973.541687,1249.979614 973.965027,1252.569092 
	C974.285095,1254.526367 974.111450,1256.578857 974.550903,1258.499023 
	C975.516113,1262.716431 980.374207,1266.614868 975.645508,1271.236084 
	C972.465210,1274.344360 969.075134,1277.237915 965.306458,1280.656006 
	C966.556519,1286.211060 968.635620,1292.861816 969.375183,1299.658325 
	C969.858765,1304.101929 969.130066,1309.013916 967.635498,1313.254639 
	C965.572693,1319.107910 966.762695,1323.628906 970.821594,1327.779297 
	C974.806091,1331.853516 975.317749,1336.891846 976.233093,1342.289429 
	C978.428467,1355.234619 974.929626,1368.533569 979.568909,1381.386353 
	C980.985657,1385.311279 979.290222,1390.516479 978.501587,1395.044922 
	C977.254150,1402.208130 975.328979,1409.256714 974.178772,1416.432007 
	C973.663574,1419.646240 973.305054,1423.557861 974.649963,1426.274414 
	C978.998535,1435.057739 977.426331,1443.928955 975.278442,1452.451050 
	C973.445251,1459.724854 976.549988,1463.587280 981.362061,1467.778442 
	C985.297668,1471.206421 989.105225,1475.032471 992.005798,1479.332153 
	C995.379883,1484.333618 995.565674,1490.341064 991.592529,1495.111206 
	C986.532410,1501.186401 986.690125,1507.558105 990.054504,1513.636597 
	C993.036926,1519.024780 993.425110,1524.128540 991.974243,1530.476562 
	C965.257568,1531.352783 938.539490,1531.500000 910.896729,1530.612549 
	C910.343018,1526.297119 910.878174,1523.024780 911.048950,1519.733643 
	C911.357178,1513.793457 911.970459,1507.801270 911.512024,1501.904175 
	C910.737000,1491.933594 904.888245,1482.581909 907.844666,1472.071899 
	C908.158264,1470.957153 907.502808,1469.451416 907.007263,1468.246216 
	C902.731934,1457.848389 898.678040,1447.343262 893.917175,1437.170166 
	C892.170227,1433.437012 891.649475,1430.342041 893.614807,1426.875854 
	C896.253540,1422.221680 895.708679,1417.680176 894.706543,1412.505127 
	C892.124146,1399.169556 889.727966,1385.619385 898.327820,1373.114380 
	C901.530273,1368.457520 899.723145,1364.414673 895.849792,1360.776978 
	C890.513611,1355.765625 888.214172,1350.094360 892.330750,1342.954346 
	C893.344055,1341.196655 893.704956,1338.238525 892.939514,1336.438965 
	C890.895264,1331.633179 888.056885,1327.167358 885.572449,1322.545898 
	C884.352417,1320.276367 882.907410,1318.064209 882.104065,1315.646851 
	C880.032471,1309.413086 878.936279,1302.768066 876.208618,1296.860596 
	C872.340027,1288.482300 870.884644,1280.549072 875.873962,1272.270264 
	C878.573975,1267.790039 878.214783,1263.846924 875.038879,1259.408447 
	C872.008118,1255.172729 868.380188,1250.153809 870.408203,1244.692261 
	C873.204895,1237.160522 870.565308,1230.894775 867.277588,1224.791138 
	C863.736206,1218.216309 863.452881,1211.629395 864.705750,1204.531494 
	C865.253052,1201.430664 865.325439,1197.925659 864.431335,1194.960815 
	C862.829102,1189.647705 859.941467,1184.726807 858.283813,1179.425293 
	C853.498962,1164.122925 854.474609,1148.194580 854.583008,1132.519775 
	C854.618042,1127.450928 854.442017,1123.538818 850.990417,1120.005371 
	C846.993835,1115.914185 845.722717,1110.996704 845.947998,1105.393799 
	C846.175171,1099.744141 846.443115,1094.034912 845.899048,1088.428955 
	C844.920837,1078.349976 844.780518,1068.400269 835.377686,1060.687622 
	C830.032959,1056.303467 828.262634,1048.327393 831.602295,1040.441040 
	C833.199097,1036.670288 833.888794,1032.047241 833.435974,1027.983398 
	C832.707458,1021.445923 830.682068,1015.054016 829.221802,1008.596741 
	C827.473389,1000.865295 825.438843,993.182190 824.094604,985.380554 
	C822.861694,978.225464 822.669617,970.892883 821.480896,963.727783 
	C820.502808,957.831970 818.534851,952.346375 813.435547,948.269531 
	C808.297791,944.161926 806.902100,938.033203 808.274475,931.965942 
	C809.074768,928.427612 812.015259,925.373352 813.992798,922.101318 
	C832.176758,921.959351 850.360474,921.754578 868.544678,921.693359 
	C886.412842,921.633179 904.281494,921.718811 923.069946,921.928345 
z"/>
<path fill="#F2EAC9" opacity="1.000000" stroke="none" 
	d="
M813.072754,921.912231 
	C812.015259,925.373352 809.074768,928.427612 808.274475,931.965942 
	C806.902100,938.033203 808.297791,944.161926 813.435547,948.269531 
	C818.534851,952.346375 820.502808,957.831970 821.480896,963.727783 
	C822.669617,970.892883 822.861694,978.225464 824.094604,985.380554 
	C825.438843,993.182190 827.473389,1000.865295 829.221802,1008.596741 
	C830.682068,1015.054016 832.707458,1021.445923 833.435974,1027.983398 
	C833.888794,1032.047241 833.199097,1036.670288 831.602295,1040.441040 
	C828.262634,1048.327393 830.032959,1056.303467 835.377686,1060.687622 
	C844.780518,1068.400269 844.920837,1078.349976 845.899048,1088.428955 
	C846.443115,1094.034912 846.175171,1099.744141 845.947998,1105.393799 
	C845.722717,1110.996704 846.993835,1115.914185 850.990417,1120.005371 
	C854.442017,1123.538818 854.618042,1127.450928 854.583008,1132.519775 
	C854.474609,1148.194580 853.498962,1164.122925 858.283813,1179.425293 
	C859.941467,1184.726807 862.829102,1189.647705 864.431335,1194.960815 
	C865.325439,1197.925659 865.253052,1201.430664 864.705750,1204.531494 
	C863.452881,1211.629395 863.736206,1218.216309 867.277588,1224.791138 
	C870.565308,1230.894775 873.204895,1237.160522 870.408203,1244.692261 
	C868.380188,1250.153809 872.008118,1255.172729 875.038879,1259.408447 
	C878.214783,1263.846924 878.573975,1267.790039 875.873962,1272.270264 
	C870.884644,1280.549072 872.340027,1288.482300 876.208618,1296.860596 
	C878.936279,1302.768066 880.032471,1309.413086 882.104065,1315.646851 
	C882.907410,1318.064209 884.352417,1320.276367 885.572449,1322.545898 
	C888.056885,1327.167358 890.895264,1331.633179 892.939514,1336.438965 
	C893.704956,1338.238525 893.344055,1341.196655 892.330750,1342.954346 
	C888.214172,1350.094360 890.513611,1355.765625 895.849792,1360.776978 
	C899.723145,1364.414673 901.530273,1368.457520 898.327820,1373.114380 
	C889.727966,1385.619385 892.124146,1399.169556 894.706543,1412.505127 
	C895.708679,1417.680176 896.253540,1422.221680 893.614807,1426.875854 
	C891.649475,1430.342041 892.170227,1433.437012 893.917175,1437.170166 
	C898.678040,1447.343262 902.731934,1457.848389 907.007263,1468.246216 
	C907.502808,1469.451416 908.158264,1470.957153 907.844666,1472.071899 
	C904.888245,1482.581909 910.737000,1491.933594 911.512024,1501.904175 
	C911.970459,1507.801270 911.357178,1513.793457 911.048950,1519.733643 
	C910.878174,1523.024780 910.343018,1526.297119 909.979126,1530.407227 
	C880.599731,1531.373413 851.213257,1531.510376 820.903809,1530.681885 
	C819.471008,1526.807495 819.586609,1523.579346 818.303284,1521.065308 
	C816.423645,1517.383301 816.635803,1514.115112 818.106812,1510.592163 
	C820.282410,1505.381836 821.663635,1499.626099 824.804321,1495.085571 
	C828.878845,1489.195190 828.631470,1483.984741 825.176575,1478.442017 
	C822.373352,1473.944580 819.257507,1469.641235 816.256042,1465.268311 
	C814.954529,1463.372070 812.759583,1461.665283 812.396545,1459.619385 
	C810.460571,1448.709473 808.555603,1438.049316 811.083496,1426.576416 
	C813.719116,1414.614868 813.966064,1401.541748 806.873352,1390.770142 
	C802.483643,1384.103516 802.510193,1378.745361 805.814819,1372.436890 
	C809.038757,1366.282593 808.113953,1360.626709 805.277527,1354.363403 
	C802.622192,1348.500122 800.861084,1341.937988 800.229187,1335.533325 
	C799.570618,1328.857788 798.438782,1322.707397 795.976685,1316.342285 
	C793.662903,1310.360596 789.527649,1303.118042 794.583130,1296.813110 
	C798.214050,1292.284912 797.664734,1287.656738 798.058228,1282.759888 
	C798.532349,1276.861206 796.314026,1272.940796 791.573853,1269.240845 
	C786.637207,1265.387573 784.225037,1260.070435 788.071045,1253.400024 
	C789.616333,1250.719971 789.804199,1247.042969 789.917908,1243.795410 
	C790.174255,1236.471924 789.795288,1229.125854 790.068726,1221.803589 
	C790.263184,1216.596680 789.452576,1211.895386 785.943970,1207.883057 
	C781.478943,1202.776978 780.851135,1197.362671 784.236938,1191.353271 
	C786.708740,1186.966187 786.312195,1182.843140 783.626343,1178.236816 
	C779.014160,1170.326782 775.157410,1161.963379 771.246460,1153.666382 
	C770.303467,1151.665771 770.386475,1149.180542 770.002747,1146.917358 
	C768.622253,1138.776611 767.645508,1130.538086 765.704346,1122.533447 
	C764.648804,1118.180542 764.125244,1114.425659 765.602234,1109.985229 
	C770.065857,1096.566162 769.562866,1094.992310 758.359985,1086.324707 
	C755.371826,1084.012939 753.776367,1081.692261 754.010803,1078.052734 
	C754.521179,1070.127197 754.812378,1062.177002 755.668335,1054.288452 
	C756.132019,1050.015015 755.822815,1046.402222 752.430908,1043.404541 
	C750.437012,1041.642456 748.608826,1039.686157 746.770081,1037.756226 
	C739.788940,1030.428711 739.530457,1022.531067 747.100037,1016.203430 
	C754.730591,1009.824707 754.332825,1000.630005 752.823730,993.614929 
	C750.801697,984.215820 744.889954,975.472961 739.770508,966.977295 
	C735.595581,960.049133 734.539429,953.381897 737.976257,946.206360 
	C740.137634,941.693787 740.401794,937.449341 738.606750,932.745239 
	C737.317322,929.366211 736.837952,925.678101 735.997253,922.127930 
	C761.382385,921.992981 786.767517,921.858093 813.072754,921.912231 
z"/>
<path fill="#F4EED1" opacity="1.000000" stroke="none" 
	d="
M735.077271,921.936218 
	C736.837952,925.678101 737.317322,929.366211 738.606750,932.745239 
	C740.401794,937.449341 740.137634,941.693787 737.976257,946.206360 
	C734.539429,953.381897 735.595581,960.049133 739.770508,966.977295 
	C744.889954,975.472961 750.801697,984.215820 752.823730,993.614929 
	C754.332825,1000.630005 754.730591,1009.824707 747.100037,1016.203430 
	C739.530457,1022.531067 739.788940,1030.428711 746.770081,1037.756226 
	C748.608826,1039.686157 750.437012,1041.642456 752.430908,1043.404541 
	C755.822815,1046.402222 756.132019,1050.015015 755.668335,1054.288452 
	C754.812378,1062.177002 754.521179,1070.127197 754.010803,1078.052734 
	C753.776367,1081.692261 755.371826,1084.012939 758.359985,1086.324707 
	C769.562866,1094.992310 770.065857,1096.566162 765.602234,1109.985229 
	C764.125244,1114.425659 764.648804,1118.180542 765.704346,1122.533447 
	C767.645508,1130.538086 768.622253,1138.776611 770.002747,1146.917358 
	C770.386475,1149.180542 770.303467,1151.665771 771.246460,1153.666382 
	C775.157410,1161.963379 779.014160,1170.326782 783.626343,1178.236816 
	C786.312195,1182.843140 786.708740,1186.966187 784.236938,1191.353271 
	C780.851135,1197.362671 781.478943,1202.776978 785.943970,1207.883057 
	C789.452576,1211.895386 790.263184,1216.596680 790.068726,1221.803589 
	C789.795288,1229.125854 790.174255,1236.471924 789.917908,1243.795410 
	C789.804199,1247.042969 789.616333,1250.719971 788.071045,1253.400024 
	C784.225037,1260.070435 786.637207,1265.387573 791.573853,1269.240845 
	C796.314026,1272.940796 798.532349,1276.861206 798.058228,1282.759888 
	C797.664734,1287.656738 798.214050,1292.284912 794.583130,1296.813110 
	C789.527649,1303.118042 793.662903,1310.360596 795.976685,1316.342285 
	C798.438782,1322.707397 799.570618,1328.857788 800.229187,1335.533325 
	C800.861084,1341.937988 802.622192,1348.500122 805.277527,1354.363403 
	C808.113953,1360.626709 809.038757,1366.282593 805.814819,1372.436890 
	C802.510193,1378.745361 802.483643,1384.103516 806.873352,1390.770142 
	C813.966064,1401.541748 813.719116,1414.614868 811.083496,1426.576416 
	C808.555603,1438.049316 810.460571,1448.709473 812.396545,1459.619385 
	C812.759583,1461.665283 814.954529,1463.372070 816.256042,1465.268311 
	C819.257507,1469.641235 822.373352,1473.944580 825.176575,1478.442017 
	C828.631470,1483.984741 828.878845,1489.195190 824.804321,1495.085571 
	C821.663635,1499.626099 820.282410,1505.381836 818.106812,1510.592163 
	C816.635803,1514.115112 816.423645,1517.383301 818.303284,1521.065308 
	C819.586609,1523.579346 819.471008,1526.807495 819.985352,1530.482178 
	C794.601379,1531.367798 769.212891,1531.487427 742.903320,1530.564941 
	C741.170044,1517.643066 741.099121,1505.580444 734.447937,1495.002197 
	C731.512268,1490.333252 732.368591,1486.864624 735.987549,1482.608154 
	C741.657959,1475.938599 741.084045,1472.199829 736.066650,1464.913696 
	C732.485535,1459.713257 728.572754,1454.355347 730.519531,1447.472534 
	C732.918701,1438.989868 730.677002,1432.018921 724.852234,1425.671997 
	C722.890930,1423.534668 721.240479,1420.760620 720.433228,1417.990479 
	C718.866211,1412.613281 717.996887,1407.032837 716.722107,1400.984375 
	C718.043762,1399.314697 719.745728,1397.291260 721.310608,1395.166870 
	C730.539490,1382.638306 730.871765,1369.711548 725.010620,1355.349243 
	C721.329651,1346.329468 718.239868,1336.015137 718.949707,1326.587646 
	C719.525818,1318.935913 718.028198,1313.604248 713.501160,1308.739990 
	C707.315674,1302.093628 703.402710,1294.965698 703.924316,1285.565430 
	C704.422607,1276.584961 706.982422,1268.049194 711.089539,1260.435303 
	C713.683899,1255.625610 714.382324,1252.055908 711.814941,1247.624878 
	C707.167419,1239.603882 705.350281,1231.002808 705.900513,1221.750000 
	C706.050293,1219.231934 705.906372,1215.625977 704.359985,1214.261841 
	C697.472351,1208.185669 699.745117,1200.953735 701.148254,1193.944214 
	C702.047791,1189.450928 701.872559,1185.926514 699.070557,1181.848022 
	C689.249451,1167.553589 683.106812,1152.504272 687.115723,1134.172607 
	C688.500610,1127.839844 687.530945,1119.793213 682.670776,1113.514282 
	C678.905701,1108.650269 676.529114,1102.916260 678.851318,1096.761719 
	C682.472534,1087.164307 680.396912,1078.064941 677.484131,1068.910278 
	C672.733459,1053.979248 663.390137,1040.217285 665.983032,1023.417480 
	C666.486877,1020.153198 666.873535,1016.862671 667.126160,1013.569824 
	C667.444763,1009.416504 667.570374,1005.248413 667.769043,1001.289795 
	C665.635803,1000.662048 664.711853,1000.308289 663.755249,1000.121033 
	C651.883423,997.797791 650.312317,995.837158 653.785339,983.960022 
	C657.774475,970.317993 662.607544,956.922729 667.481628,942.188110 
	C663.936523,939.424133 660.055664,935.808594 655.618591,933.106262 
	C651.260681,930.452148 648.700012,927.056396 647.999573,922.114014 
	C676.718811,921.990845 705.438110,921.867737 735.077271,921.936218 
z"/>
<path fill="#F5F1DB" opacity="1.000000" stroke="none" 
	d="
M647.079773,921.919922 
	C648.700012,927.056396 651.260681,930.452148 655.618591,933.106262 
	C660.055664,935.808594 663.936523,939.424133 667.481628,942.188110 
	C662.607544,956.922729 657.774475,970.317993 653.785339,983.960022 
	C650.312317,995.837158 651.883423,997.797791 663.755249,1000.121033 
	C664.711853,1000.308289 665.635803,1000.662048 667.769043,1001.289795 
	C667.570374,1005.248413 667.444763,1009.416504 667.126160,1013.569824 
	C666.873535,1016.862671 666.486877,1020.153198 665.983032,1023.417480 
	C663.390137,1040.217285 672.733459,1053.979248 677.484131,1068.910278 
	C680.396912,1078.064941 682.472534,1087.164307 678.851318,1096.761719 
	C676.529114,1102.916260 678.905701,1108.650269 682.670776,1113.514282 
	C687.530945,1119.793213 688.500610,1127.839844 687.115723,1134.172607 
	C683.106812,1152.504272 689.249451,1167.553589 699.070557,1181.848022 
	C701.872559,1185.926514 702.047791,1189.450928 701.148254,1193.944214 
	C699.745117,1200.953735 697.472351,1208.185669 704.359985,1214.261841 
	C705.906372,1215.625977 706.050293,1219.231934 705.900513,1221.750000 
	C705.350281,1231.002808 707.167419,1239.603882 711.814941,1247.624878 
	C714.382324,1252.055908 713.683899,1255.625610 711.089539,1260.435303 
	C706.982422,1268.049194 704.422607,1276.584961 703.924316,1285.565430 
	C703.402710,1294.965698 707.315674,1302.093628 713.501160,1308.739990 
	C718.028198,1313.604248 719.525818,1318.935913 718.949707,1326.587646 
	C718.239868,1336.015137 721.329651,1346.329468 725.010620,1355.349243 
	C730.871765,1369.711548 730.539490,1382.638306 721.310608,1395.166870 
	C719.745728,1397.291260 718.043762,1399.314697 716.722107,1400.984375 
	C717.996887,1407.032837 718.866211,1412.613281 720.433228,1417.990479 
	C721.240479,1420.760620 722.890930,1423.534668 724.852234,1425.671997 
	C730.677002,1432.018921 732.918701,1438.989868 730.519531,1447.472534 
	C728.572754,1454.355347 732.485535,1459.713257 736.066650,1464.913696 
	C741.084045,1472.199829 741.657959,1475.938599 735.987549,1482.608154 
	C732.368591,1486.864624 731.512268,1490.333252 734.447937,1495.002197 
	C741.099121,1505.580444 741.170044,1517.643066 741.986694,1530.356445 
	C710.599365,1531.344604 679.207703,1531.498901 646.895935,1531.453125 
	C644.993591,1526.783936 644.011353,1522.315063 642.742310,1516.541504 
	C644.209473,1515.327515 646.388855,1513.472168 648.623230,1511.685547 
	C654.920410,1506.649902 660.426941,1501.268555 662.807739,1492.992920 
	C664.193420,1488.176270 663.033386,1485.348877 659.362671,1482.814941 
	C657.449280,1481.494141 655.501038,1480.224121 653.576843,1478.919067 
	C652.206970,1477.989990 649.960571,1477.282959 649.628540,1476.062378 
	C646.776550,1465.580444 640.321167,1456.059082 643.787415,1444.004150 
	C649.282776,1424.892456 648.819946,1419.846680 634.584351,1408.324585 
	C633.300354,1407.285278 631.794495,1406.524658 630.462830,1405.538330 
	C629.194519,1404.599121 628.019409,1403.533813 625.160522,1401.159424 
	C638.215149,1401.335327 637.204712,1388.184082 646.570679,1384.153320 
	C644.391235,1378.772827 642.760803,1373.404419 640.149170,1368.565552 
	C633.708130,1356.631348 636.666382,1344.971558 639.825500,1332.969482 
	C641.292664,1327.395508 641.670532,1321.318481 641.322510,1315.542847 
	C640.959412,1309.518188 638.578979,1303.948853 632.296082,1301.235229 
	C631.718872,1300.985718 631.379761,1300.182495 630.802185,1299.936890 
	C618.163940,1294.561768 614.491760,1283.669312 612.605774,1271.338379 
	C611.898926,1266.716553 612.450562,1263.499756 616.927002,1261.565308 
	C617.536194,1261.302002 618.119690,1260.969727 618.690308,1260.627930 
	C630.673950,1253.453125 630.973694,1246.943237 619.640991,1239.009033 
	C618.287537,1238.061279 616.731445,1237.401123 615.262024,1236.621216 
	C605.134216,1231.245361 602.777466,1222.505981 608.669189,1212.165649 
	C609.327637,1211.009888 609.897949,1209.794800 610.645386,1208.700439 
	C615.804749,1201.146484 617.245117,1194.029053 610.394897,1186.220459 
	C607.335327,1182.732666 604.509949,1177.893311 607.472839,1172.431030 
	C607.885193,1171.670776 607.648254,1170.463135 607.485779,1169.500732 
	C605.178162,1155.829468 602.754028,1142.177368 600.518372,1128.494507 
	C598.665344,1117.153198 599.323608,1106.453003 610.090332,1099.071289 
	C605.100098,1090.879272 600.457825,1083.484741 596.052551,1075.951538 
	C592.818359,1070.420776 593.053955,1067.896484 598.333435,1062.847656 
	C602.406921,1058.952148 604.999512,1054.466553 605.710754,1049.112427 
	C606.817749,1040.779419 602.223389,1035.075073 594.349304,1032.991699 
	C591.534668,1028.060547 589.540955,1023.619812 586.674255,1019.841492 
	C584.328247,1016.749512 583.877808,1014.233154 585.565308,1010.774292 
	C587.744568,1006.307312 589.915222,1001.736450 591.243958,996.974426 
	C594.222778,986.298279 590.681519,978.547058 580.353271,974.578064 
	C575.257019,972.619629 573.593201,969.781433 574.011902,964.916199 
	C574.408386,960.309509 575.000366,955.716248 575.271301,951.103149 
	C575.562500,946.146790 576.672852,940.873230 575.410767,936.293335 
	C574.139465,931.680176 575.413452,927.847229 575.978699,922.889893 
	C599.384033,921.975159 622.771973,921.850464 647.079773,921.919922 
z"/>
<path fill="#ECC963" opacity="1.000000" stroke="none" 
	d="
M1460.894531,1531.392334 
	C1460.890259,1528.776611 1462.124268,1526.418823 1462.640137,1523.913330 
	C1463.218872,1521.101074 1464.415283,1517.246094 1463.119629,1515.440674 
	C1459.467896,1510.353638 1460.058228,1505.561890 1461.895142,1500.360352 
	C1462.001343,1500.059814 1462.016724,1499.678833 1461.939697,1499.369019 
	C1458.877441,1487.064819 1459.157471,1474.297974 1455.817261,1461.875000 
	C1453.433960,1453.011108 1454.269653,1442.821899 1455.765503,1433.562622 
	C1456.551636,1428.696655 1456.444092,1424.734863 1455.151001,1420.261353 
	C1453.791992,1415.560669 1453.081055,1410.675903 1451.981567,1405.895874 
	C1451.103760,1402.079834 1450.994629,1397.656372 1448.901489,1394.643799 
	C1445.037720,1389.082764 1445.480835,1384.103516 1448.593750,1378.852173 
	C1453.130371,1371.199341 1453.310425,1363.947876 1447.870483,1356.508301 
	C1446.479492,1354.606079 1445.472778,1350.947388 1446.365112,1349.096680 
	C1451.303711,1338.854736 1447.145630,1329.204712 1445.641846,1319.246460 
	C1444.727051,1313.188843 1445.386719,1306.883301 1445.455811,1300.690430 
	C1445.526245,1294.378540 1445.871338,1288.066650 1445.793701,1281.758545 
	C1445.775391,1280.276978 1444.940552,1278.068726 1443.801880,1277.454834 
	C1435.057495,1272.740845 1437.178833,1264.510132 1438.725464,1257.966431 
	C1440.567627,1250.172729 1439.141357,1244.579346 1434.141846,1238.766602 
	C1431.930298,1236.195557 1430.171143,1232.196777 1430.249146,1228.894287 
	C1430.463989,1219.791748 1427.334839,1211.909058 1423.096191,1204.303589 
	C1419.960571,1198.677124 1419.236694,1193.423462 1422.164673,1187.284790 
	C1425.794678,1179.674927 1425.236450,1171.246338 1421.528564,1164.093872 
	C1416.382324,1154.166870 1413.982910,1143.724976 1412.037354,1132.955566 
	C1411.463623,1129.780273 1410.253662,1126.477173 1408.469604,1123.812134 
	C1404.260010,1117.523804 1401.949341,1110.850220 1401.895386,1103.261841 
	C1401.879517,1101.031006 1401.533325,1098.054199 1400.115234,1096.709839 
	C1393.667358,1090.597412 1394.405273,1082.254150 1392.571045,1074.720459 
	C1392.183472,1073.128418 1391.608398,1071.147217 1392.197144,1069.824707 
	C1395.455200,1062.505371 1391.770508,1056.111206 1389.549316,1049.708618 
	C1386.078247,1039.703125 1382.072632,1029.870483 1377.955688,1020.107117 
	C1376.179321,1015.894592 1375.611206,1012.003540 1377.032349,1007.568787 
	C1377.805054,1005.157593 1378.314575,1001.991760 1377.394287,999.823669 
	C1373.285156,990.144165 1368.609741,980.705261 1364.161255,971.168945 
	C1363.474854,969.697083 1362.000610,967.810364 1362.431030,966.728149 
	C1365.010132,960.243774 1363.739380,954.398315 1360.563110,948.567932 
	C1359.991699,947.518921 1359.730103,945.461365 1360.346069,944.735901 
	C1365.995728,938.081299 1361.103516,930.716248 1362.001465,922.945557 
	C1380.720093,921.985840 1399.437622,921.866272 1419.076538,921.932068 
	C1424.248535,929.884155 1431.402954,934.538452 1438.495483,939.209229 
	C1441.455444,941.158508 1444.658325,942.738770 1449.249268,947.380676 
	C1447.227661,948.403748 1444.984497,949.140381 1443.225098,950.502136 
	C1437.256592,955.121216 1435.885986,959.910950 1440.253662,965.948303 
	C1444.130859,971.307617 1446.363159,976.549133 1446.443481,983.204346 
	C1446.475098,985.816650 1448.742188,988.717285 1450.643799,990.924377 
	C1454.315063,995.185669 1454.993652,1000.222839 1453.666138,1005.016174 
	C1450.818848,1015.295776 1455.171753,1021.533569 1463.732788,1026.066406 
	C1464.294678,1026.364014 1464.713623,1026.931152 1465.367310,1027.526123 
	C1457.185425,1039.922729 1463.171265,1051.479248 1468.073608,1062.696655 
	C1470.109131,1067.354370 1471.792603,1071.616333 1472.139038,1076.765747 
	C1472.826294,1086.981201 1474.329590,1097.140747 1475.442017,1107.329224 
	C1475.730225,1109.968140 1475.824951,1112.628540 1475.999023,1115.279785 
	C1476.151367,1117.599243 1475.495239,1120.405640 1476.567261,1122.158691 
	C1482.446533,1131.774658 1483.826782,1143.247437 1490.827393,1152.619751 
	C1501.029053,1166.277710 1508.226318,1181.526367 1508.253784,1199.434448 
	C1508.264404,1206.276611 1510.518311,1213.103394 1511.611572,1219.959106 
	C1513.122681,1229.435791 1514.391479,1238.952026 1515.993530,1248.412476 
	C1516.648560,1252.280518 1517.778931,1256.084717 1518.918335,1259.849854 
	C1520.343018,1264.557007 1522.950806,1268.990845 1520.410156,1274.235352 
	C1519.608643,1275.889526 1519.872314,1278.190430 1520.040039,1280.162109 
	C1521.026855,1291.758423 1518.444336,1302.616577 1513.549316,1313.041260 
	C1512.988770,1314.235352 1512.468140,1315.500610 1512.237793,1316.788208 
	C1511.262573,1322.238647 1512.803101,1325.020996 1518.428589,1325.815674 
	C1523.110718,1326.477051 1526.585693,1328.027344 1525.856934,1333.048706 
	C1523.983643,1345.956787 1530.940186,1355.499634 1538.043091,1364.561157 
	C1542.530273,1370.285522 1542.816162,1375.132812 1539.545776,1380.922485 
	C1537.257568,1384.973145 1534.732178,1388.899170 1532.619141,1393.037231 
	C1529.110107,1399.908813 1528.086304,1407.025146 1532.702148,1413.780151 
	C1536.833130,1419.825439 1535.399658,1428.079712 1541.163452,1433.648438 
	C1542.310669,1434.756714 1540.555176,1439.242798 1539.654053,1442.013794 
	C1538.175781,1446.560669 1537.316895,1450.428223 1540.500854,1455.131958 
	C1542.351562,1457.865845 1541.203613,1462.629517 1541.449951,1467.339844 
	C1547.062134,1473.913940 1546.604004,1486.598145 1539.712158,1495.215698 
	C1532.380615,1504.383179 1532.814209,1504.537720 1538.705688,1514.018188 
	C1541.536865,1518.573975 1542.288818,1524.421875 1543.989990,1530.442139 
	C1516.603760,1531.328125 1489.209717,1531.456543 1460.894531,1531.392334 
z"/>
<path fill="#ECD282" opacity="1.000000" stroke="none" 
	d="
M1212.885010,1531.408325 
	C1210.340942,1523.492920 1209.132080,1515.659546 1206.933228,1508.114746 
	C1205.654785,1503.728394 1206.722778,1500.306274 1208.608398,1496.735352 
	C1212.130249,1490.065674 1212.250122,1483.332764 1208.352417,1476.919678 
	C1203.107422,1468.289429 1203.793823,1458.433472 1202.051270,1449.085327 
	C1201.266968,1444.878052 1200.712402,1440.595947 1200.476562,1436.324341 
	C1199.624878,1420.892456 1195.452393,1405.431641 1200.907593,1390.017212 
	C1201.637939,1387.953613 1201.835693,1385.367920 1201.323975,1383.255737 
	C1198.995605,1373.643311 1196.413086,1364.089111 1193.749756,1354.562256 
	C1191.615845,1346.928711 1189.231689,1339.365356 1186.965454,1331.768799 
	C1186.681519,1330.817139 1186.188477,1329.844482 1186.219360,1328.895508 
	C1186.472412,1321.121582 1186.816284,1313.350342 1187.160278,1305.579712 
	C1187.218140,1304.273682 1187.922241,1302.744385 1187.458740,1301.706299 
	C1182.843506,1291.371948 1186.219482,1280.213989 1184.006958,1269.654663 
	C1183.804199,1268.686890 1184.228638,1267.331909 1183.704224,1266.726196 
	C1177.178589,1259.190552 1179.330322,1248.938477 1175.431030,1240.589478 
	C1174.613037,1238.837891 1173.934326,1236.712036 1174.118774,1234.850586 
	C1175.427979,1221.641724 1171.557617,1209.246216 1168.588501,1196.682739 
	C1168.069702,1194.487427 1168.495239,1192.081299 1168.362183,1189.779541 
	C1168.197998,1186.938721 1167.945068,1184.101074 1167.637573,1181.271973 
	C1167.569336,1180.643921 1166.886475,1180.064209 1166.869629,1179.451782 
	C1166.413940,1162.896851 1157.058716,1148.774170 1154.172241,1132.908447 
	C1152.576660,1124.139648 1150.258911,1115.263550 1150.407104,1106.472046 
	C1150.627930,1093.359375 1147.932129,1080.789673 1145.911133,1068.062988 
	C1145.468506,1065.276123 1144.617310,1062.054688 1142.813477,1060.070435 
	C1135.207642,1051.704468 1133.190308,1041.565063 1131.868774,1030.859741 
	C1130.946411,1023.387634 1128.483521,1016.116577 1127.327637,1008.659729 
	C1125.853516,999.148010 1122.948608,990.086060 1120.462524,980.846252 
	C1115.839600,963.664612 1113.242188,945.938965 1109.750732,928.449951 
	C1109.427734,926.832092 1108.741699,925.286682 1108.107910,922.912476 
	C1134.046631,921.989929 1160.101807,921.862488 1187.078369,922.820068 
	C1187.383789,935.351257 1189.468384,946.357849 1193.429810,957.051208 
	C1200.380859,975.814697 1202.788208,995.558289 1206.076538,1015.121643 
	C1207.712524,1024.855103 1208.401489,1034.871338 1215.242676,1043.057861 
	C1216.956055,1045.108398 1217.822021,1048.640381 1217.621948,1051.385376 
	C1216.666138,1064.500610 1219.189819,1077.039429 1224.601929,1088.722168 
	C1227.885132,1095.809082 1228.168579,1102.667358 1227.740723,1110.025635 
	C1227.560303,1113.131226 1227.433228,1116.814941 1228.863281,1119.340698 
	C1235.469604,1131.009644 1236.159546,1144.029663 1237.849976,1156.738770 
	C1239.295166,1167.603638 1240.078613,1178.472778 1246.038818,1188.110107 
	C1250.096802,1194.671387 1251.076538,1201.503174 1248.806030,1209.114136 
	C1247.829346,1212.387817 1248.329834,1216.373291 1249.095337,1219.828125 
	C1250.094360,1224.336304 1252.134644,1228.603516 1253.528809,1233.036621 
	C1256.845825,1243.584106 1262.669922,1253.817993 1256.686890,1265.456543 
	C1255.767090,1267.245850 1257.142212,1270.474243 1257.977539,1272.853760 
	C1259.834106,1278.141724 1262.366211,1283.207520 1264.008545,1288.552734 
	C1268.821411,1304.216064 1270.452881,1320.273193 1270.189941,1336.674683 
	C1270.085815,1343.164185 1272.064209,1349.694946 1273.173218,1356.193481 
	C1274.053345,1361.350708 1275.377197,1366.453735 1275.920166,1371.641846 
	C1276.642334,1378.543579 1275.703003,1385.795776 1277.452393,1392.372070 
	C1280.086182,1402.273315 1280.767578,1411.760742 1278.542236,1421.788574 
	C1276.468262,1431.134155 1275.020752,1440.262451 1284.293457,1447.956299 
	C1289.845581,1452.563232 1288.885986,1456.430786 1284.324341,1462.725342 
	C1281.984009,1465.954956 1279.594482,1468.979370 1280.753906,1473.559814 
	C1282.614014,1480.908325 1285.065918,1488.332275 1285.361084,1495.799927 
	C1285.826416,1507.568115 1290.484131,1519.337891 1285.977661,1531.185181 
	C1261.920044,1531.327271 1237.862305,1531.469482 1212.885010,1531.408325 
z"/>
<path fill="#ECD07A" opacity="1.000000" stroke="none" 
	d="
M1286.897705,1531.381348 
	C1290.484131,1519.337891 1285.826416,1507.568115 1285.361084,1495.799927 
	C1285.065918,1488.332275 1282.614014,1480.908325 1280.753906,1473.559814 
	C1279.594482,1468.979370 1281.984009,1465.954956 1284.324341,1462.725342 
	C1288.885986,1456.430786 1289.845581,1452.563232 1284.293457,1447.956299 
	C1275.020752,1440.262451 1276.468262,1431.134155 1278.542236,1421.788574 
	C1280.767578,1411.760742 1280.086182,1402.273315 1277.452393,1392.372070 
	C1275.703003,1385.795776 1276.642334,1378.543579 1275.920166,1371.641846 
	C1275.377197,1366.453735 1274.053345,1361.350708 1273.173218,1356.193481 
	C1272.064209,1349.694946 1270.085815,1343.164185 1270.189941,1336.674683 
	C1270.452881,1320.273193 1268.821411,1304.216064 1264.008545,1288.552734 
	C1262.366211,1283.207520 1259.834106,1278.141724 1257.977539,1272.853760 
	C1257.142212,1270.474243 1255.767090,1267.245850 1256.686890,1265.456543 
	C1262.669922,1253.817993 1256.845825,1243.584106 1253.528809,1233.036621 
	C1252.134644,1228.603516 1250.094360,1224.336304 1249.095337,1219.828125 
	C1248.329834,1216.373291 1247.829346,1212.387817 1248.806030,1209.114136 
	C1251.076538,1201.503174 1250.096802,1194.671387 1246.038818,1188.110107 
	C1240.078613,1178.472778 1239.295166,1167.603638 1237.849976,1156.738770 
	C1236.159546,1144.029663 1235.469604,1131.009644 1228.863281,1119.340698 
	C1227.433228,1116.814941 1227.560303,1113.131226 1227.740723,1110.025635 
	C1228.168579,1102.667358 1227.885132,1095.809082 1224.601929,1088.722168 
	C1219.189819,1077.039429 1216.666138,1064.500610 1217.621948,1051.385376 
	C1217.822021,1048.640381 1216.956055,1045.108398 1215.242676,1043.057861 
	C1208.401489,1034.871338 1207.712524,1024.855103 1206.076538,1015.121643 
	C1202.788208,995.558289 1200.380859,975.814697 1193.429810,957.051208 
	C1189.468384,946.357849 1187.383789,935.351257 1187.999268,923.008423 
	C1201.385010,921.985168 1214.771362,921.858704 1229.079834,921.915649 
	C1226.960449,933.581177 1227.166016,933.826782 1236.619385,940.674500 
	C1238.261963,941.864441 1239.499390,944.264648 1239.963867,946.322571 
	C1242.641846,958.185852 1242.571167,970.558960 1247.749268,982.012451 
	C1250.269531,987.586792 1250.835449,994.044312 1252.293945,1000.100220 
	C1252.371094,1000.420776 1252.447144,1000.789124 1252.651245,1001.024658 
	C1261.333374,1011.041626 1260.114502,1023.146118 1260.093506,1035.101196 
	C1260.081787,1041.790405 1261.703369,1048.225708 1265.870972,1053.746948 
	C1270.243652,1059.539917 1271.801270,1066.273804 1271.948364,1073.321045 
	C1272.083862,1079.809692 1273.670410,1085.471558 1277.480713,1090.976929 
	C1279.455688,1093.830444 1279.551758,1098.395752 1279.483398,1102.169312 
	C1279.322144,1111.088013 1278.486816,1119.993042 1278.096069,1128.911011 
	C1278.027100,1130.484619 1278.359131,1132.403198 1279.240356,1133.638916 
	C1285.980957,1143.091187 1288.178223,1154.252808 1291.449219,1165.031372 
	C1296.923584,1183.069946 1300.729004,1201.549561 1307.085815,1219.400269 
	C1310.092163,1227.841919 1309.422974,1237.673706 1309.917236,1246.902344 
	C1310.289429,1253.853394 1310.319702,1260.526367 1313.175537,1267.315186 
	C1316.664429,1275.608643 1317.554199,1284.716309 1314.059448,1293.561279 
	C1311.868164,1299.107056 1313.648804,1303.327881 1316.785522,1308.211792 
	C1319.659180,1312.686035 1321.404053,1318.491211 1321.761230,1323.835815 
	C1322.317139,1332.155151 1322.273193,1340.196655 1326.630615,1347.882935 
	C1328.953491,1351.980469 1328.985596,1357.020264 1328.571045,1362.239746 
	C1327.610962,1374.326782 1327.866577,1386.549438 1328.313477,1398.691895 
	C1328.517456,1404.235840 1331.156128,1409.709351 1331.230469,1415.234497 
	C1331.336548,1423.090332 1329.984619,1430.957031 1329.461914,1438.832764 
	C1328.870483,1447.744263 1327.672607,1456.739136 1328.394043,1465.562378 
	C1328.759644,1470.031860 1332.533936,1474.354614 1335.179321,1478.479248 
	C1341.471313,1488.289673 1341.588867,1492.344360 1333.525513,1501.258789 
	C1329.885498,1505.282959 1329.677002,1508.756836 1332.416382,1512.773438 
	C1336.112915,1518.193481 1336.452393,1523.797363 1334.027100,1530.470459 
	C1318.611084,1531.330444 1303.214478,1531.453979 1286.897705,1531.381348 
z"/>
<path fill="#F9F7EA" opacity="1.000000" stroke="none" 
	d="
M546.867920,1531.444092 
	C546.022034,1528.302124 545.828979,1525.330566 546.095276,1522.400757 
	C546.511414,1517.822510 549.864563,1513.871460 553.117188,1514.371948 
	C557.616943,1515.064331 559.770508,1518.194824 559.947632,1522.659546 
	C560.038574,1524.952759 559.973389,1527.252197 559.984619,1530.351074 
	C555.902588,1531.313354 551.814636,1531.473389 546.867920,1531.444092 
z"/>
<path fill="#F9F7EA" opacity="1.000000" stroke="none" 
	d="
M504.636414,943.532349 
	C505.982239,947.179932 507.066071,950.746887 502.915955,951.476074 
	C499.967010,951.994202 496.068054,951.418457 493.677094,949.764099 
	C490.295197,947.424316 492.190308,941.013367 496.371033,940.533630 
	C498.878815,940.245850 501.620148,941.993042 504.636414,943.532349 
z"/>
</svg>